<?xml version="1.0" encoding="UTF-8"?>
<svg xmlns="http://www.w3.org/2000/svg" id="vectorsoft_wbm_hl_rgb" width="340" height="80" viewBox="0 0 340 80"><title>vectorsoft wbm hl rgb</title><g><rect width="340" height="80" fill="none"/><g><path d="M187.13,35.75a1.68,1.68,0,0,0-1.21-.46,1.64,1.64,0,0,0-1.62,1.17L179,49l-5.39-12.61a1.63,1.63,0,0,0-.71-.87,1.89,1.89,0,0,0-1-.3,1.68,1.68,0,0,0-1.32.55,1.65,1.65,0,0,0-.49,1.1,1.82,1.82,0,0,0,.07.56,2.68,2.68,0,0,0,.15.39l6.82,15.62a2.06,2.06,0,0,0,.81.93,1.66,1.66,0,0,0,1.07.23,1.71,1.71,0,0,0,1.55-1.16l6.86-15.62a3.66,3.66,0,0,0,.18-.46,1.9,1.9,0,0,0,.07-.46A1.53,1.53,0,0,0,187.13,35.75Z" fill="#101218"/><path d="M206.21,45.55a1.69,1.69,0,0,0,.58-1.21,9.93,9.93,0,0,0-.76-3.7,9.53,9.53,0,0,0-1.95-3,9.12,9.12,0,0,0-2.83-2,8.28,8.28,0,0,0-3.34-.71,8.56,8.56,0,0,0-4.39,1.22,9.31,9.31,0,0,0-3.36,3.51,11.09,11.09,0,0,0-1.28,5.49,10.39,10.39,0,0,0,1.21,5.05,8.74,8.74,0,0,0,3.43,3.47A10.32,10.32,0,0,0,198.7,55a9,9,0,0,0,3.59-.73A8.88,8.88,0,0,0,205,52.59a1.88,1.88,0,0,0,.79-1.46,1.53,1.53,0,0,0-.43-1.08,1.44,1.44,0,0,0-1.08-.45,2.17,2.17,0,0,0-1.08.33c-.29.24-.63.5-1,.76a5.28,5.28,0,0,1-1.45.68,7.39,7.39,0,0,1-2.16.27,6.06,6.06,0,0,1-3.14-.82,6,6,0,0,1-2.24-2.32,6.62,6.62,0,0,1-.77-2.48h12.53A1.88,1.88,0,0,0,206.21,45.55ZM194,39.85a4.58,4.58,0,0,1,1.77-1.11,6.47,6.47,0,0,1,2.1-.35,5.33,5.33,0,0,1,2.32.53,5.23,5.23,0,0,1,1.86,1.5,4,4,0,0,1,.87,2.24v.26H192.54a6.32,6.32,0,0,1,.28-1A5.66,5.66,0,0,1,194,39.85Z" fill="#101218"/><path d="M218.63,35a12.83,12.83,0,0,1,3.45.42,6.13,6.13,0,0,1,2.36,1.17,2.23,2.23,0,0,1,.87,1.73,2,2,0,0,1-.38,1.15,1.26,1.26,0,0,1-1.07.53,1.89,1.89,0,0,1-.88-.18,3.09,3.09,0,0,1-.63-.44,5.12,5.12,0,0,0-.73-.51,3.93,3.93,0,0,0-1.17-.37,8.27,8.27,0,0,0-1.39-.14,5.86,5.86,0,0,0-5.47,3.25,7.85,7.85,0,0,0,0,6.78,6.21,6.21,0,0,0,2.13,2.38,5.72,5.72,0,0,0,3.16.87,8.11,8.11,0,0,0,1.79-.16,4.28,4.28,0,0,0,2.11-1.1,1.46,1.46,0,0,1,1.05-.34,1.49,1.49,0,0,1,1.21.49,1.87,1.87,0,0,1,.41,1.22,2,2,0,0,1-1,1.55A7.61,7.61,0,0,1,222,54.53a12.45,12.45,0,0,1-3.5.47,9,9,0,0,1-4.89-1.31,8.85,8.85,0,0,1-3.22-3.58A11.32,11.32,0,0,1,209.21,45a10.73,10.73,0,0,1,1.19-5.13A9,9,0,0,1,218.63,35Z" fill="#101218"/><path d="M237.5,51.17a1.81,1.81,0,0,0-.74.14,1.61,1.61,0,0,1-.71.15,2.07,2.07,0,0,1-.77-.15,1.12,1.12,0,0,1-.6-.54,2.29,2.29,0,0,1-.22-1.06V39h2.89a1.64,1.64,0,0,0,1.21-.47,1.56,1.56,0,0,0,.49-1.17,1.66,1.66,0,0,0-.49-1.22,1.62,1.62,0,0,0-1.21-.49h-2.89V32.77a1.83,1.83,0,0,0-.5-1.33,1.83,1.83,0,0,0-2.58,0,1.82,1.82,0,0,0-.53,1.33v2.89h-2a1.7,1.7,0,0,0-1.21.47A1.69,1.69,0,0,0,228.87,39h2V49.85a5.9,5.9,0,0,0,.51,2.72A3.28,3.28,0,0,0,232.64,54a4.6,4.6,0,0,0,1.61.55,11.5,11.5,0,0,0,1.44.1,4,4,0,0,0,2-.54,1.62,1.62,0,0,0,.94-1.43,1.58,1.58,0,0,0-.36-1.09A1,1,0,0,0,237.5,51.17Z" fill="#101218"/><path d="M259.71,45a10.29,10.29,0,0,1-1.28,5.16,9.69,9.69,0,0,1-13.18,3.52,9.36,9.36,0,0,1-3.46-3.52A10.18,10.18,0,0,1,240.51,45a10.29,10.29,0,0,1,1.28-5.21,9.63,9.63,0,0,1,3.46-3.54,9.82,9.82,0,0,1,9.73,0,9.76,9.76,0,0,1,3.45,3.54A10.4,10.4,0,0,1,259.71,45Zm-3.61,0a7.4,7.4,0,0,0-.79-3.49,6.3,6.3,0,0,0-2.15-2.34,5.84,5.84,0,0,0-6.07,0,6.41,6.41,0,0,0-2.16,2.34,7.17,7.17,0,0,0-.81,3.49,7.09,7.09,0,0,0,.81,3.43,6.15,6.15,0,0,0,2.16,2.33,5.9,5.9,0,0,0,6.07,0,6,6,0,0,0,2.15-2.33A7.32,7.32,0,0,0,256.1,45Z" fill="#101218"/><path d="M274.41,35.51a2.63,2.63,0,0,0-1.62-.51,6.47,6.47,0,0,0-2.15.36,6.76,6.76,0,0,0-1.86,1,6.47,6.47,0,0,0-1.42,1.53,6.05,6.05,0,0,0-.53.93V37.3a1.79,1.79,0,0,0-.52-1.33,1.83,1.83,0,0,0-2.58,0,1.83,1.83,0,0,0-.51,1.33V52.77a1.87,1.87,0,0,0,.51,1.34,1.86,1.86,0,0,0,2.58,0,1.83,1.83,0,0,0,.52-1.34V44a7.1,7.1,0,0,1,.38-2.37,6.09,6.09,0,0,1,1-1.84,4.69,4.69,0,0,1,1.44-1.19,3.54,3.54,0,0,1,1.56-.4,2.78,2.78,0,0,1,1.19.24,2.37,2.37,0,0,0,1,.24,1.64,1.64,0,0,0,1.12-.46,1.83,1.83,0,0,0,.51-1.44A1.54,1.54,0,0,0,274.41,35.51Z" fill="#101218"/><path d="M276.66,51.64a1.94,1.94,0,0,1-.29-1.18,1.45,1.45,0,0,1,.76-1.15,1.65,1.65,0,0,1,1.06-.28,1.77,1.77,0,0,1,1.07.57,8.11,8.11,0,0,0,2.25,1.79,6.51,6.51,0,0,0,3,.65,7.2,7.2,0,0,0,1.48-.23,3,3,0,0,0,1.3-.73,2.09,2.09,0,0,0,.54-1.55,1.89,1.89,0,0,0-.58-1.46,4.27,4.27,0,0,0-1.51-.9c-.63-.23-1.3-.44-2-.64s-1.54-.46-2.32-.73a8.37,8.37,0,0,1-2.12-1,5.09,5.09,0,0,1-1.53-1.66,4.9,4.9,0,0,1-.59-2.52,4.68,4.68,0,0,1,.95-2.95,6.51,6.51,0,0,1,2.49-1.94A8.05,8.05,0,0,1,284,35a9.65,9.65,0,0,1,2.2.27,9.42,9.42,0,0,1,2.24.86,6.46,6.46,0,0,1,1.88,1.53,2.09,2.09,0,0,1,.41,1.13,1.31,1.31,0,0,1-.59,1.17,1.39,1.39,0,0,1-1,.33,1.56,1.56,0,0,1-1-.4,4.75,4.75,0,0,0-1.77-1.37,5.83,5.83,0,0,0-2.45-.49,5.6,5.6,0,0,0-1.43.2,2.65,2.65,0,0,0-1.24.71,2,2,0,0,0-.51,1.5,1.89,1.89,0,0,0,.6,1.46,4.71,4.71,0,0,0,1.57.91q1,.36,2.13.66t2.22.69a8.46,8.46,0,0,1,2,1,5,5,0,0,1,1.44,1.64,5.11,5.11,0,0,1,.56,2.54,4.7,4.7,0,0,1-1,3,6.55,6.55,0,0,1-2.6,1.91,8.47,8.47,0,0,1-3.31.66,11.77,11.77,0,0,1-4.09-.75A7.55,7.55,0,0,1,276.66,51.64Z" fill="#101218"/><path d="M312.64,45a10.19,10.19,0,0,1-1.29,5.16,9.57,9.57,0,0,1-16.64,0A10.29,10.29,0,0,1,293.43,45a10.4,10.4,0,0,1,1.28-5.21,9.66,9.66,0,0,1,3.47-3.54,9.82,9.82,0,0,1,9.73,0,9.66,9.66,0,0,1,3.44,3.54A10.3,10.3,0,0,1,312.64,45ZM309,45a7.28,7.28,0,0,0-.8-3.49,6.22,6.22,0,0,0-2.15-2.34,5.83,5.83,0,0,0-6.06,0,6.52,6.52,0,0,0-2.17,2.34A7.17,7.17,0,0,0,297,45a7.09,7.09,0,0,0,.81,3.43A6.25,6.25,0,0,0,300,50.8a5.88,5.88,0,0,0,6.06,0,6,6,0,0,0,2.15-2.33A7.21,7.21,0,0,0,309,45Z" fill="#101218"/><path d="M321.54,32.24a2.24,2.24,0,0,1,.73-1,2.16,2.16,0,0,1,1.33-.38,4.74,4.74,0,0,1,1.23.17,3.92,3.92,0,0,0,1,.16,1.33,1.33,0,0,0,1-.46,1.62,1.62,0,0,0,.44-1.18,1.45,1.45,0,0,0-.49-1.15,2.93,2.93,0,0,0-1.21-.6,5.82,5.82,0,0,0-1.41-.19,6.56,6.56,0,0,0-4.78,1.61,5.48,5.48,0,0,0-1.64,4.12v2.38h-2.2a1.68,1.68,0,1,0,0,3.35h2.2V52.77a1.9,1.9,0,0,0,.5,1.34,1.86,1.86,0,0,0,2.58,0,1.84,1.84,0,0,0,.53-1.34V39.12h3.53a1.6,1.6,0,0,0,1.2-.47,1.81,1.81,0,0,0,0-2.41,1.6,1.6,0,0,0-1.2-.47h-3.53V33.36A3.21,3.21,0,0,1,321.54,32.24Z" fill="#101218"/><path d="M338.45,51.17a1.81,1.81,0,0,0-.74.14,1.61,1.61,0,0,1-.71.15,2.07,2.07,0,0,1-.77-.15,1.12,1.12,0,0,1-.6-.54,2.3,2.3,0,0,1-.21-1.06V39h2.88a1.64,1.64,0,0,0,1.21-.47,1.56,1.56,0,0,0,.49-1.17,1.66,1.66,0,0,0-.49-1.22,1.62,1.62,0,0,0-1.21-.49h-2.88V32.77a1.84,1.84,0,0,0-.51-1.33,1.73,1.73,0,0,0-1.3-.53,1.75,1.75,0,0,0-1.28.53,1.81,1.81,0,0,0-.52,1.33v2.89h-2a1.7,1.7,0,0,0-1.21.47A1.69,1.69,0,0,0,329.82,39h2V49.85a5.92,5.92,0,0,0,.5,2.72A3.34,3.34,0,0,0,333.59,54a4.67,4.67,0,0,0,1.61.55,11.5,11.5,0,0,0,1.44.1,4,4,0,0,0,2-.54,1.62,1.62,0,0,0,.94-1.43,1.58,1.58,0,0,0-.36-1.09A1,1,0,0,0,338.45,51.17Z" fill="#101218"/></g><path d="M110.59,0A40,40,0,0,0,77.23,17.05L52.84,51.51,28.47,9.43A15,15,0,0,0,15.49,2H1.13L43.34,75h0a10,10,0,0,0,16.84.73h0L93.62,28.53A20,20,0,1,1,110,60h-6.19a15,15,0,0,0-12.29,6.4L82,80h28a40,40,0,0,0,.59-80Z" fill="#ff1654"/></g></svg>